<?xml version="1.0" standalone="no"?>
<!DOCTYPE svg PUBLIC "-//W3C//DTD SVG 20010904//EN"
 "http://www.w3.org/TR/2001/REC-SVG-20010904/DTD/svg10.dtd">
<svg version="1.0" xmlns="http://www.w3.org/2000/svg"
 width="512.000000pt" height="512.000000pt" viewBox="0 0 512.000000 512.000000"
 preserveAspectRatio="xMidYMid meet">
<metadata>
Created by potrace 1.15, written by Peter Selinger 2001-2017
</metadata>
<g transform="translate(0.000000,512.000000) scale(0.100000,-0.100000)"
fill="#000000" stroke="none">
<path d="M0 2560 l0 -2560 2560 0 2560 0 0 2560 0 2560 -2560 0 -2560 0 0
-2560z m2750 1680 c214 -22 395 -76 595 -175 174 -87 296 -176 440 -320 274
-274 434 -594 491 -979 22 -152 15 -418 -15 -569 -90 -449 -365 -858 -743
-1104 -552 -361 -1279 -375 -1828 -36 -632 391 -939 1098 -794 1828 77 385
319 768 639 1011 105 80 147 105 274 169 141 70 218 99 337 129 207 52 405 66
604 46z"/>
<path d="M2475 3684 c-407 -44 -743 -272 -924 -624 -273 -533 -108 -1164 393
-1498 377 -252 884 -252 1267 0 264 174 451 458 505 769 22 126 15 361 -14
469 -120 451 -467 782 -906 865 -85 16 -253 26 -321 19z m375 -149 c174 -48
310 -126 446 -257 159 -153 251 -318 301 -542 19 -87 22 -305 4 -394 -78 -397
-354 -700 -747 -818 -126 -38 -345 -45 -484 -16 -208 43 -366 128 -521 282
-161 161 -247 316 -291 530 -26 125 -21 355 10 472 103 384 407 674 793 757
136 30 354 24 489 -14z"/>
<path d="M3058 3134 c-68 -64 -144 -143 -170 -176 -44 -55 -108 -172 -108
-198 0 -6 -30 -40 -67 -75 l-67 -64 24 -26 c13 -14 29 -25 35 -25 7 0 35 26
63 58 40 47 63 63 109 80 98 36 176 96 323 249 77 80 140 150 140 155 0 5 -51
-38 -112 -96 -62 -58 -118 -106 -125 -106 -30 0 -15 24 84 129 58 61 103 114
100 117 -2 3 -51 -39 -107 -93 -117 -112 -128 -120 -136 -99 -4 10 27 51 93
121 54 58 100 111 102 117 2 7 -46 -35 -108 -92 -61 -58 -118 -106 -126 -108
-37 -8 -7 37 87 134 55 57 99 107 95 110 -3 3 -61 -47 -129 -112z"/>
<path d="M1966 3185 c-19 -19 -20 -71 -3 -101 10 -19 373 -429 434 -491 18
-19 33 -23 79 -23 35 0 67 -6 85 -17 29 -17 163 -163 442 -482 70 -80 145
-159 165 -174 46 -35 87 -33 115 4 18 25 18 28 2 62 -20 42 -1255 1230 -1283
1235 -11 2 -27 -4 -36 -13z"/>
<path d="M2470 2457 c-41 -40 -177 -167 -301 -284 -132 -124 -231 -225 -239
-243 -24 -59 23 -109 82 -88 16 6 121 109 250 246 122 131 253 270 292 309
l70 73 -29 30 c-16 16 -34 30 -39 30 -6 0 -45 -33 -86 -73z"/>
</g>
</svg>
